<?xml version="1.0" standalone="no"?>
<!DOCTYPE svg PUBLIC "-//W3C//DTD SVG 20010904//EN"
 "http://www.w3.org/TR/2001/REC-SVG-20010904/DTD/svg10.dtd">
<svg version="1.0" xmlns="http://www.w3.org/2000/svg"
 width="1080.000000pt" height="1080.000000pt" viewBox="0 0 1080.000000 1080.000000"
 preserveAspectRatio="xMidYMid meet">

<g transform="translate(0.000000,1080.000000) scale(0.100000,-0.100000)"
fill="#000000" stroke="none">
<path d="M0 5400 l0 -5400 5400 0 5400 0 0 5400 0 5400 -5400 0 -5400 0 0
-5400z m5575 3356 c142 -3 268 -11 330 -21 815 -130 1421 -606 1560 -1225 25
-112 30 -305 11 -422 -84 -514 -520 -956 -1153 -1172 -164 -56 -319 -91 -504
-114 l-144 -18 170 -7 c189 -7 290 -18 445 -48 374 -73 731 -246 950 -461 59
-58 145 -158 136 -158 -3 0 6 -12 19 -26 14 -15 25 -31 25 -36 0 -5 9 -21 20
-36 33 -44 90 -218 99 -300 23 -222 -42 -421 -196 -596 -23 -26 -46 -45 -52
-42 -5 4 -13 1 -17 -5 -5 -8 -3 -9 6 -4 32 20 -1 -17 -65 -73 -38 -34 -76 -60
-82 -57 -7 2 -12 0 -10 -6 3 -14 -214 -139 -231 -134 -7 3 -10 0 -7 -5 3 -6
-1 -10 -10 -10 -9 0 -26 -6 -38 -14 -43 -28 -215 -86 -387 -130 l-175 -46
-1525 -2 -1525 -3 -3 -303 -2 -302 -215 0 -215 0 -1 633 c0 347 -2 974 -5
1392 -2 418 -4 765 -4 770 0 6 -37 9 -97 7 -54 -2 -117 -1 -140 3 l-43 6 0
335 0 334 146 0 146 0 -2 1148 c-1 631 -2 1150 -1 1153 1 6 2404 2 2786 -5z
m-2463 -6039 c71 -30 98 -115 60 -187 -25 -45 -74 -69 -156 -77 l-66 -6 0 -69
0 -69 -52 3 -53 3 -3 200 c-1 110 0 206 3 213 8 20 215 12 267 -11z m481 -185
c48 -114 87 -211 87 -215 0 -4 -20 -7 -44 -7 -51 0 -69 14 -86 65 l-12 35 -84
0 -84 0 -22 -47 c-22 -46 -25 -48 -70 -51 -36 -2 -48 0 -48 11 0 11 44 120
153 380 16 36 17 37 69 37 l54 0 87 -208z m398 198 c66 -12 101 -36 115 -80
17 -50 2 -99 -41 -136 -20 -18 -32 -34 -27 -35 11 -5 112 -150 112 -161 0 -13
-108 -9 -120 5 -6 6 -30 41 -53 77 -28 43 -50 66 -64 68 -21 3 -22 -1 -25 -75
l-3 -78 -52 -3 -53 -3 0 215 0 216 79 0 c43 0 103 -5 132 -10z m496 -2 c9 -13
173 -403 173 -413 0 -11 -98 -4 -107 8 -6 6 -16 29 -22 50 l-13 37 -84 0 -84
0 -22 -47 c-23 -48 -23 -48 -77 -51 -41 -2 -52 0 -48 10 24 59 170 405 174
411 7 12 100 8 110 -5z m547 -7 c43 -17 65 -50 66 -98 0 -34 -5 -46 -30 -67
l-31 -25 30 -15 c33 -18 41 -34 41 -85 0 -86 -51 -113 -222 -119 l-128 -4 0
217 0 218 123 -5 c67 -3 135 -11 151 -17z m504 -23 l3 -38 -95 0 -96 0 0 -50
0 -50 70 0 70 0 0 -35 0 -35 -70 0 -70 0 0 -50 0 -50 96 0 95 0 -3 -37 -3 -38
-147 -3 -148 -3 0 216 0 216 148 -3 147 -3 3 -37z m230 -135 l2 -173 86 0 85
0 -3 -37 -3 -38 -135 0 -135 0 -3 213 -2 213 52 -3 53 -3 3 -172z m390 0 l2
-173 86 0 85 0 -3 -37 -3 -38 -137 -3 -138 -3 0 216 0 216 53 -3 52 -3 3 -172z
m372 37 c0 -149 7 -181 47 -199 40 -18 73 -13 104 18 l29 29 0 147 0 146 53
-3 52 -3 3 -105 c6 -196 -13 -255 -98 -297 -111 -57 -253 -9 -289 96 -12 36
-16 293 -4 304 3 4 28 7 55 7 l48 0 0 -140z m536 132 c6 -4 42 -64 80 -134 62
-115 84 -146 84 -119 0 5 30 64 66 130 70 128 79 136 145 129 l34 -3 0 -210 0
-210 -47 -3 -48 -3 0 138 0 138 -42 -75 c-76 -140 -84 -150 -123 -150 -33 0
-36 3 -92 107 l-58 106 -5 -129 -5 -129 -47 -3 -48 -3 0 215 0 216 48 0 c26 0
52 -4 58 -8z m-2731 -684 c14 -6 25 -15 25 -20 0 -11 -2 -10 -43 7 -48 20 -83
19 -133 -4 -50 -23 -69 -62 -61 -127 8 -76 79 -123 161 -107 54 10 66 21 66
58 0 33 -2 35 -35 35 -19 0 -35 5 -35 10 0 6 20 10 45 10 l45 0 0 -51 c0 -48
-2 -51 -35 -65 -47 -19 -123 -18 -165 4 -70 37 -96 134 -54 200 36 56 149 82
219 50z m365 -13 c15 -14 20 -28 18 -54 -2 -29 -10 -39 -39 -56 l-36 -20 48
-54 c72 -81 59 -87 -16 -8 -46 46 -73 67 -90 67 -23 0 -24 -4 -27 -62 -2 -36
-7 -62 -13 -61 -6 2 -11 59 -13 139 l-3 136 75 -4 c56 -2 80 -8 96 -23z m407
5 c61 -37 83 -132 44 -196 -39 -64 -156 -84 -219 -37 -81 59 -77 192 7 238 39
21 130 19 168 -5z m243 -75 c0 -65 5 -105 15 -125 19 -37 70 -55 111 -40 60
23 64 33 64 152 0 89 3 108 15 108 22 0 21 -179 0 -220 -36 -69 -144 -80 -197
-21 -27 30 -28 36 -28 136 0 63 4 105 10 105 6 0 10 -38 10 -95z m561 68 c24
-23 28 -75 8 -99 -20 -25 -72 -44 -119 -44 l-40 0 0 -55 c0 -30 -4 -55 -10
-55 -6 0 -10 54 -10 141 l0 142 76 -5 c58 -4 80 -10 95 -25z m319 17 c21 -13
5 -23 -18 -11 -47 25 -112 0 -112 -43 0 -30 16 -43 78 -61 58 -18 75 -35 75
-77 0 -43 -41 -78 -93 -78 -45 0 -90 18 -90 35 0 9 13 6 40 -7 69 -34 131 2
118 69 -2 12 -23 25 -59 38 -71 25 -89 41 -89 76 0 44 31 69 88 69 26 0 54 -4
62 -10z"/>
<path d="M3780 7405 l0 -305 853 0 c911 1 927 1 1079 51 80 27 171 95 206 154
27 47 26 118 -1 175 -39 81 -145 157 -280 199 l-82 26 -887 3 -888 2 0 -305z"/>
<path d="M5900 7221 c0 -6 4 -13 10 -16 6 -3 7 1 4 9 -7 18 -14 21 -14 7z"/>
<path d="M3785 4998 c-3 -7 -4 -177 -3 -377 l3 -364 1030 -1 c960 -1 1036 0
1120 17 93 19 246 66 255 77 3 4 19 14 35 23 25 13 122 107 110 107 -2 0 5 21
16 48 26 60 22 137 -11 207 -13 28 -24 56 -23 63 1 7 -1 11 -4 8 -3 -3 -29 15
-57 40 -61 56 -163 108 -265 137 -75 21 -85 22 -1139 25 -857 2 -1063 0 -1067
-10z"/>
<path d="M2950 2595 l0 -65 43 0 c58 0 87 22 87 65 0 43 -29 65 -87 65 l-43 0
0 -65z"/>
<path d="M3435 2594 c-10 -27 -24 -64 -31 -81 -7 -18 -9 -35 -4 -38 12 -8 100
-3 105 6 3 4 -8 42 -23 85 l-29 78 -18 -50z"/>
<path d="M3890 2600 l0 -60 40 0 c27 0 47 7 60 20 43 43 9 100 -60 100 l-40 0
0 -60z"/>
<path d="M4399 2556 c-15 -41 -24 -77 -21 -80 8 -8 112 -7 112 1 0 13 -55 153
-60 153 -3 0 -17 -34 -31 -74z"/>
<path d="M4870 2610 l0 -50 49 0 c53 0 81 17 81 50 0 33 -28 50 -81 50 l-49 0
0 -50z"/>
<path d="M4870 2440 l0 -50 54 0 c58 0 86 16 86 50 0 34 -28 50 -86 50 l-54 0
0 -50z"/>
<path d="M4560 1979 l0 -62 51 6 c58 7 89 29 89 63 0 38 -26 54 -86 54 l-54 0
0 -61z"/>
<path d="M4963 2035 c-43 -18 -65 -55 -65 -108 0 -86 45 -130 132 -130 50 0
88 25 106 68 28 68 13 123 -45 162 -38 26 -81 29 -128 8z"/>
<path d="M5760 1975 l0 -65 46 0 c71 0 104 23 104 72 0 38 -33 58 -97 58 l-53
0 0 -65z"/>
</g>
</svg>
